<?xml version="1.0" encoding="UTF-8" standalone="no" ?>
<!DOCTYPE svg PUBLIC "-//W3C//DTD SVG 1.1//EN" "http://www.w3.org/Graphics/SVG/1.1/DTD/svg11.dtd">
<svg xmlns="http://www.w3.org/2000/svg" xmlns:xlink="http://www.w3.org/1999/xlink" version="1.1" width="1280" height="1024" viewBox="0 0 1280 1024" xml:space="preserve">
<desc>Created with Fabric.js 4.4.0</desc>
<defs>
</defs>
<g transform="matrix(1 0 0 1 640 512)" id="background-logo"  >
<rect style="stroke: none; stroke-width: 0; stroke-dasharray: none; stroke-linecap: butt; stroke-dashoffset: 0; stroke-linejoin: miter; stroke-miterlimit: 4; fill: rgb(255,255,255); fill-opacity: 0; fill-rule: nonzero; opacity: 1;"  paint-order="stroke"  x="-640" y="-512" rx="0" ry="0" width="1280" height="1024" />
</g>
<g transform="matrix(2.9303774639721194 0 0 2.9303774639721194 640.1129272924579 512.7679055887139)" id="logo-logo"  >
<g style=""  paint-order="stroke"   >
		<g transform="matrix(0.4725447828154848 0 0 0.4725447828154848 -1.702598349680045 2.343585335008953)"  >
<path style="stroke: none; stroke-width: 1; stroke-dasharray: none; stroke-linecap: butt; stroke-dashoffset: 0; stroke-linejoin: miter; stroke-miterlimit: 4; fill: rgb(6,23,50); fill-rule: nonzero; opacity: 1;"  paint-order="stroke"  transform=" translate(-269.46386725, -275.41455075)" d="M 487.0712891 275.418457 C 487.0712891 395.5971679 389.640625 493.02294919999997 269.4628907 493.02294919999997 C 149.2841798 493.02294919999997 51.85644540000001 395.59716799999995 51.85644540000001 275.418457 C 51.85644540000001 155.2314453 149.2841798 57.80615229999998 269.4628907 57.80615229999998 C 389.640625 57.8061523 487.0712891 155.2314453 487.0712891 275.418457 z" stroke-linecap="round" />
</g>
		<g transform="matrix(0.4725447828154848 0 0 0.4725447828154848 15.763676622076105 -23.661984258406306)"  >
<linearGradient id="SVGID_675537" gradientUnits="userSpaceOnUse" gradientTransform="matrix(1 0 0 1 178.36376950000002 96.35338033792459)"  x1="0" y1="0" x2="0" y2="248">
<stop offset="0%" style="stop-color:rgb(180,236,81);stop-opacity: 1"/>
<stop offset="100%" style="stop-color:rgb(66,147,33);stop-opacity: 1"/>
</linearGradient>
<path style="stroke: none; stroke-width: 1; stroke-dasharray: none; stroke-linecap: butt; stroke-dashoffset: 0; stroke-linejoin: miter; stroke-miterlimit: 4; fill: url(#SVGID_675537); fill-rule: nonzero; opacity: 1;"  paint-order="stroke"  transform=" translate(-306.42602535000003, -220.3815241689623)" d="M 434.4882812 344.409668 C 432.1982422 211.5170898 331.6972656 90.215332 178.3637695 96.5942383 C 207.1796875 107.0756836 232.90722649999998 122.29541019999999 255.4667968 140.5209961 C 343.0029296 162.48828129999998 397.76171869999996 242.9125977 399.25781240000003 329.6811523 L 434.4882812 344.409668 z" stroke-linecap="round" />
</g>
		<g transform="matrix(0.4725447828154848 0 0 0.4725447828154848 -48.04190736751855 52.252299781122474)"  >
<linearGradient id="SVGID_675539" gradientUnits="userSpaceOnUse" gradientTransform="matrix(1 0 0 1 50.414381021629765 289.7563477)"  x1="0" y1="0" x2="0" y2="183">
<stop offset="0%" style="stop-color:rgb(180,236,81);stop-opacity: 1"/>
<stop offset="100%" style="stop-color:rgb(66,147,33);stop-opacity: 1"/>
</linearGradient>
<path style="stroke: none; stroke-width: 1; stroke-dasharray: none; stroke-linecap: butt; stroke-dashoffset: 0; stroke-linejoin: miter; stroke-miterlimit: 4; fill: url(#SVGID_675539); fill-rule: nonzero; opacity: 1;"  paint-order="stroke"  transform=" translate(-171.40054986081486, -381.0314494251917)" d="M 120.2509766 410.847168 C 87.0361328 384.45361330000003 88.8374024 326.2856446 131.1689454 301.0932618 C 139.873047 295.9077149 149.8085938 292.1655274 160.6123048 289.7563477 C 135.2138673 290.9545899 112.2460939 296.9780274 93.6308595 308.0649415 C 39.8085938 340.097168 37.5185547 414.0454102 79.7490234 447.6049805 C 130.65136719999998 488.0385743 233.21875 476.9428711 292.38671869999996 428.1079102 L 274.586914 404.7407227 C 227.1948242 435.0395508 156.8149414 439.8920898 120.2509766 410.847168 z" stroke-linecap="round" />
</g>
		<g transform="matrix(0.4725447828154848 0 0 0.4725447828154848 15.029247945914562 -103.42974352738483)"  >
<linearGradient id="SVGID_675541" gradientUnits="userSpaceOnUse" gradientTransform="matrix(1 0 0 1 244.93505870000004 -0.0000712514448366619)"  x1="0" y1="0" x2="0" y2="103">
<stop offset="0%" style="stop-color:rgb(180,236,81);stop-opacity: 1"/>
<stop offset="100%" style="stop-color:rgb(66,147,33);stop-opacity: 1"/>
</linearGradient>
<path style="stroke: none; stroke-width: 1; stroke-dasharray: none; stroke-linecap: butt; stroke-dashoffset: 0; stroke-linejoin: miter; stroke-miterlimit: 4; fill: url(#SVGID_675541); fill-rule: nonzero; opacity: 1;"  paint-order="stroke"  transform=" translate(-304.87182625, -51.576868674277584)" d="M 364.8085938 103.1538086 C 358.38085939999996 52.699218800000004 335.3388672 6.785644500000004 298.9941407 0.3183594000000056 C 285.3671876 -1.5375975999999945 261.3681641 4.490722700000005 244.9350587 24.444336000000007 C 280.4794922 34.5004883 321.1591797 57.7490234 364.8085938 103.1538086 z" stroke-linecap="round" />
</g>
		<g transform="matrix(0.4725447828154848 0 0 0.4725447828154848 -89.43393001031814 -28.47967981770981)"  >
<linearGradient id="SVGID_675543" gradientUnits="userSpaceOnUse" gradientTransform="matrix(1 0 0 1 4.030855595064352 174.23541175536081)"  x1="0" y1="0" x2="0" y2="72">
<stop offset="0%" style="stop-color:rgb(180,236,81);stop-opacity: 1"/>
<stop offset="100%" style="stop-color:rgb(66,147,33);stop-opacity: 1"/>
</linearGradient>
<path style="stroke: none; stroke-width: 1; stroke-dasharray: none; stroke-linecap: butt; stroke-dashoffset: 0; stroke-linejoin: miter; stroke-miterlimit: 4; fill: url(#SVGID_675543); fill-rule: nonzero; opacity: 1;"  paint-order="stroke"  transform=" translate(-83.80668754753218, -210.1863093776804)" d="M 39.578125 246.137207 C 44.9746094 241.01757809999998 50.963867199999996 236.2485351 57.479003899999995 231.8784179 C 58.058105499999996 225.7319335 59.183593699999996 218.927246 61.243164099999994 212.15771479999998 C 69.04833989999999 192.82226559999998 108.9335938 189.9663086 154.57324219999998 207.3706054 C 157.54980469999998 207.5288085 160.5205078 207.67333979999998 163.5825195 207.9672851 C 90.440918 166.1870117 16.8979492 164.8398438 4.7231445 194.9853516 C 0.6865234 209.9462891 14.5615234 230.7641602 39.578125 246.137207 z" stroke-linecap="round" />
</g>
		<g transform="matrix(0.4725447828154848 0 0 0.4725447828154848 70.40122377117086 25.625724283946482)"  >
<linearGradient id="SVGID_675545" gradientUnits="userSpaceOnUse" gradientTransform="matrix(1 0 0 1 317.75390619999996 154.68310549999998)"  x1="0" y1="0" x2="0" y2="340">
<stop offset="0%" style="stop-color:rgb(180,236,81);stop-opacity: 1"/>
<stop offset="100%" style="stop-color:rgb(66,147,33);stop-opacity: 1"/>
</linearGradient>
<path style="stroke: none; stroke-width: 1; stroke-dasharray: none; stroke-linecap: butt; stroke-dashoffset: 0; stroke-linejoin: miter; stroke-miterlimit: 4; fill: url(#SVGID_675545); fill-rule: nonzero; opacity: 1;"  paint-order="stroke"  transform=" translate(-422.0500871025328, -324.68424919047254)" d="M 450.9326172 154.6831055 C 464.0771484 183.31054690000002 466.73144529999996 224.5869141 462.38769529999996 262.1337891 C 475.92675779999996 305.6391602 475.2294922 353.7329102 454.3457031 390.1743164 C 454.3193359 390.2094726 454.29296869999996 390.2446289 454.2666015 390.2797852 C 436.94140619999996 418.0913086 413.51269529999996 441.682129 385.85449209999996 459.2358399 C 367.06835929999994 471.94970709999996 344.81542959999996 482.2739258 317.75390619999996 487.6176758 C 362.02246089999994 502.99951169999997 450.8574218 498.39306639999995 504.5322265 421.324707 C 550.4902344 341.128418 519.6689453 216.5053711 450.9326172 154.6831055 z" stroke-linecap="round" />
</g>
		<g transform="matrix(0.4725447828154848 0 0 0.4725447828154848 0 0.07523637151442131)"  >
<linearGradient id="SVGID_675547" gradientUnits="userSpaceOnUse" gradientTransform="matrix(1 0 0 1 0.00002791999213513918 0.31835940000001983)"  x1="0" y1="0" x2="0" y2="541">
<stop offset="0%" style="stop-color:rgb(180,236,81);stop-opacity: 1"/>
<stop offset="100%" style="stop-color:rgb(66,147,33);stop-opacity: 1"/>
</linearGradient>
<path style="stroke: none; stroke-width: 1; stroke-dasharray: none; stroke-linecap: butt; stroke-dashoffset: 0; stroke-linejoin: miter; stroke-miterlimit: 4; fill: url(#SVGID_675547); fill-rule: nonzero; opacity: 1;"  paint-order="stroke"  transform=" translate(-273.06690850999604, -270.61426716633747)" d="M 546.1337891 275.4008789 C 546.1337891 132.5795898 437.90624999999994 15.05126949999999 298.99414069999995 0.31835940000001983 C 335.33886729999995 6.78564460000002 358.38085949999993 52.69921880000002 364.8085937999999 103.15380860000002 C 317.9472656 54.4101562 274.5039062 31.1835938 237.171875 22.421875 C 193.7719727 12.1772461 158.6401367 21.5224609 136.2231445 32.934082000000004 C 135.9970703 33.069824200000006 135.72753899999998 33.201660100000005 135.5034179 33.3374023 C 73.2358398 67.7958984 25.703125 125.6166992 4.7231445 194.9853516 C 16.8979492 164.8398438 90.4409179 166.1870118 163.5825195 207.9672852 C 95.743164 201.4521485 49.33398429999998 229.2636719 23.77050779999999 263.9897461 C 3.9575195 290.809082 -3.4086914 321.7670898 1.4433594 344.1381836 C 1.4433594 344.2739258 1.4873047000000001 344.409668 1.53125 344.5454102 C 24.0844727 432.2407227 88.6005859 503.13525400000003 172.3881836 534.5356446 C 172.5219727 534.5844727 172.65771479999998 534.6274414999999 172.79150389999998 534.6713867999999 C 259.1416016 563.6059571 296.1162109 485.7045898999999 292.38671869999996 428.10791019999994 C 233.21874989999998 476.94287109999993 130.65136709999996 488.03857429999994 79.74902339999997 447.60498049999995 C 37.5185547 414.0454102 39.8085938 340.097168 93.6308594 308.0649414 C 159.8535156 268.6181641 281.1552735 293.2836914 371.0078125 371.2299805 C 376.0400391 287.89208990000003 308.6503906 143.99121100000002 178.3637695 96.59423830000003 C 331.6972656 90.215332 432.1982422 211.5170898 434.4882812 344.409668 C 462.5673828 313.1850586 476.4052734 210.16992190000002 450.9326171 154.6831055 C 519.6689452 216.50537110000002 550.4902343 341.128418 504.53222650000004 421.3247071 C 530.9003906 378.9555664 546.1337891 328.9536133 546.1337891 275.4008789 z" stroke-linecap="round" />
</g>
		<g transform="matrix(0.4725447828154848 0 0 0.4725447828154848 -7.079573422936562 2.3435853586362043)"  >
<linearGradient id="SVGID_675549" gradientUnits="userSpaceOnUse" gradientTransform="matrix(1 0 0 1 51.85644530000002 57.80615229999998)"  x1="0" y1="0" x2="0" y2="435">
<stop offset="0%" style="stop-color:rgb(180,236,81);stop-opacity: 1"/>
<stop offset="100%" style="stop-color:rgb(66,147,33);stop-opacity: 1"/>
</linearGradient>
<path style="stroke: none; stroke-width: 1; stroke-dasharray: none; stroke-linecap: butt; stroke-dashoffset: 0; stroke-linejoin: miter; stroke-miterlimit: 4; fill: url(#SVGID_675549); fill-rule: nonzero; opacity: 1;"  paint-order="stroke"  transform=" translate(-258.08510428658354, -275.4145508)" d="M 451.7792969 156.6748047 C 476.0546875 212.59179690000002 462.23828130000004 313.5493164 434.48828130000004 344.409668 C 432.1982422 211.5170898 331.6972656 90.215332 178.3637695 96.5942383 C 308.6503906 143.991211 376.040039 287.8920899 371.0078125 371.2299805 C 281.1552734 293.2836914 159.8535156 268.6181641 93.63085940000002 308.0649414 C 79.48144530000002 316.4838867 68.92968750000003 327.8168945 61.77832030000002 340.5356445 C 55.337890600000016 319.9721679 51.85644530000002 298.10107419999997 51.85644530000002 275.418457 C 51.85644530000002 260.8393554 53.31738280000002 246.6069336 56.05078120000002 232.8349609 C 82.42968740000002 214.6625976 118.18212890000001 203.6064453 163.58251950000002 207.9672851 C 132.88671870000002 190.4355468 102.13769530000002 180.0463867 75.86621090000001 176.0932617 C 111.965332 105.8735352 185.0761719 57.8061523 269.4628906 57.8061523 C 287.305664 57.8061523 304.6269531 59.9995117 321.2197265 64.0532226 C 335.3476562 74.75 349.9052734 87.6489258 364.8085938 103.1538086 C 363.69433599999996 94.4052734 362.0488282 85.81494140000001 359.95214849999996 77.5229492 C 397.546875 94.7475586 429.3730469 122.3393555 451.7792969 156.6748047 z M 292.3867188 428.1079102 C 261.019043 453.9975586 217.4550782 469.2739258 175.85839849999996 471.8979493 C 204.21386729999998 485.432129 235.94775399999997 493.0229493 269.46289069999995 493.0229493 C 272.96777349999996 493.0229493 276.44726569999995 492.9213868 279.91308599999996 492.7592774 C 289.7011719 472.5825195 293.7373047 449.0170898 292.3867188 428.1079102 z" stroke-linecap="round" />
</g>
</g>
</g>
</svg>